<svg width="331" height="190" viewBox="0 0 331 190" fill="none" xmlns="http://www.w3.org/2000/svg">
<rect width="330.549" height="189.58" rx="24" fill="#FFE002"/>
<g clip-path="url(#clip0_10_304)">
<path d="M163.266 48.6099C146.041 48.5521 112.904 88.0396 125.284 98.4993L128.324 101.074C127.503 103.274 127.213 105.637 127.477 107.97C127.8 111.203 129.47 114.297 132.172 116.69C134.735 118.961 138.106 120.4 141.377 120.4C146.788 132.868 159.156 140.519 173.649 140.95C189.196 141.412 202.253 134.115 207.722 121.008C208.08 120.084 209.6 115.944 209.6 112.284C209.6 108.605 207.522 107.081 206.194 107.081C206.156 106.939 205.894 105.98 205.532 104.826C205.174 103.671 204.801 102.863 204.801 102.863C206.244 100.697 206.271 98.7648 206.079 97.6681C205.875 96.3096 205.309 95.1551 204.17 93.9583C203.031 92.7615 200.699 91.5339 197.424 90.618L195.707 90.1408C195.7 90.0676 195.615 86.0885 195.542 84.3799C195.488 83.1484 195.38 81.2166 194.784 79.3193C194.068 76.7487 192.829 74.4974 191.278 73.0581C195.557 68.6249 198.228 63.7376 198.22 59.5467C198.209 51.4845 188.307 49.0447 176.108 54.0975L173.522 55.1943C171.944 53.644 170.363 52.0957 168.781 50.5494C167.257 49.2217 165.383 48.6176 163.266 48.6099ZM163.547 51.9694C164.186 51.9694 164.786 52.0426 165.337 52.1926C166.48 52.5159 170.262 56.903 170.262 56.903C170.262 56.903 163.235 60.8013 156.716 66.2389C147.942 73.0004 141.304 82.829 137.333 93.4926C134.212 94.1007 131.46 95.8709 129.778 98.3146C128.774 97.4756 126.9 95.8517 126.569 95.2205C123.883 90.1177 129.497 80.2044 133.423 74.6052C142.358 61.848 155.966 51.9463 163.547 51.9694ZM176.193 64.5649C176.347 64.5572 176.424 64.7574 176.3 64.8497C175.75 65.273 175.15 65.8503 174.711 66.4429C174.694 66.4655 174.684 66.4924 174.681 66.5205C174.678 66.5486 174.683 66.577 174.696 66.6024C174.708 66.6279 174.727 66.6494 174.751 66.6647C174.775 66.68 174.802 66.6885 174.83 66.6892C177.366 66.7046 180.938 67.5936 183.266 68.8981C183.424 68.9866 183.312 69.2945 183.135 69.2522C179.614 68.444 173.845 67.8321 167.857 69.2907C162.508 70.5991 158.429 72.6117 155.45 74.7783C155.296 74.8861 155.119 74.6898 155.239 74.5474C158.687 70.5644 162.931 67.101 166.734 65.1576C166.864 65.0883 167.003 65.2307 166.934 65.3577C166.63 65.908 166.049 67.0779 165.864 67.9668C165.837 68.1015 165.987 68.2093 166.102 68.1285C168.469 66.5122 172.583 64.7881 176.193 64.5649ZM187.826 76.8988L188.042 76.9026C188.667 76.9272 189.273 77.1215 189.796 77.4645C191.851 78.8306 192.144 82.144 192.252 84.5646C192.309 85.95 192.479 89.2941 192.536 90.2524C192.667 92.4498 193.245 92.7576 194.411 93.1424C195.065 93.3618 195.681 93.5196 196.577 93.7736C199.294 94.5355 200.907 95.3129 201.926 96.3058C202.531 96.9292 202.811 97.5872 202.9 98.2184C203.219 100.558 201.084 103.452 195.427 106.073C189.242 108.944 181.738 109.671 176.554 109.094L174.742 108.89C170.593 108.332 168.227 113.689 170.717 117.36C172.321 119.727 176.689 121.266 181.061 121.266C191.082 121.266 198.782 116.99 201.649 113.292C201.732 113.187 201.809 113.078 201.88 112.965C202.019 112.753 201.903 112.638 201.726 112.757C199.386 114.358 188.988 120.719 177.867 118.803C177.867 118.803 176.516 118.584 175.281 118.103C174.299 117.718 172.248 116.779 171.998 114.674C180.976 117.444 186.625 114.824 186.625 114.824C186.678 114.8 186.722 114.761 186.75 114.711C186.779 114.661 186.792 114.604 186.787 114.547C186.784 114.513 186.774 114.48 186.758 114.45C186.741 114.42 186.719 114.393 186.693 114.372C186.666 114.35 186.636 114.334 186.603 114.325C186.571 114.315 186.536 114.312 186.502 114.316C186.502 114.316 179.148 115.405 172.194 112.861C172.952 110.398 174.965 111.291 178.005 111.533C182.735 111.814 187.479 111.301 192.04 110.017C195.188 109.117 199.321 107.335 202.534 104.799C203.616 107.177 203.997 109.798 203.997 109.798C203.997 109.798 204.84 109.644 205.536 110.079C206.202 110.487 206.687 111.333 206.356 113.523C205.678 117.614 203.939 120.935 201.018 123.99C199.192 125.965 197.019 127.588 194.607 128.778C193.298 129.47 191.898 130.063 190.424 130.548C179.406 134.146 168.127 130.19 164.49 121.697C164.195 121.047 163.952 120.376 163.763 119.688C162.212 114.089 163.532 107.373 167.642 103.144C167.892 102.875 168.15 102.555 168.15 102.159C168.15 101.824 167.938 101.47 167.757 101.224C166.318 99.1343 161.334 95.5823 162.335 88.7015C163.055 83.7603 167.376 80.2776 171.405 80.4854C171.748 80.5008 172.087 80.5239 172.429 80.5431C174.172 80.647 175.7 80.8702 177.136 80.9279C179.541 81.0357 181.704 80.6855 184.266 78.5497C185.132 77.83 185.825 77.2028 186.999 77.0065C187.107 76.9873 187.353 76.8988 187.826 76.8988ZM187.911 85.2881C187.833 85.2889 187.756 85.2954 187.68 85.3073C186.391 85.5151 186.345 87.1083 186.802 89.3095C187.064 90.541 187.522 91.5993 188.034 92.2535C188.707 92.1765 189.354 92.1688 189.95 92.2535C190.293 91.4646 190.351 90.11 190.043 88.6284C189.612 86.5695 189.038 85.2727 187.911 85.2881ZM173.826 91.2375C172.423 91.2317 171.054 91.671 169.916 92.4921C169.3 92.9423 168.719 93.5696 168.8 93.9467C168.831 94.0699 168.919 94.1622 169.139 94.1892C169.643 94.2469 171.417 93.3541 173.457 93.2271C174.896 93.1386 176.089 93.5888 177.009 93.9968C177.928 94.397 178.494 94.6625 178.713 94.4316C178.856 94.2854 178.813 94.0083 178.594 93.6466C178.14 92.9077 177.209 92.1573 176.216 91.734C175.46 91.4108 174.648 91.242 173.826 91.2375ZM189.535 94.3547C188.877 94.3431 188.33 95.0704 188.315 95.971C188.299 96.8792 188.819 97.6257 189.481 97.6334C190.143 97.645 190.689 96.9215 190.705 96.0171C190.72 95.1089 190.197 94.3662 189.535 94.3547ZM175.758 95.0166C175.565 95.0166 175.365 95.0243 175.161 95.0474C173.965 95.2398 173.303 95.6323 172.879 95.9979C172.518 96.3134 172.294 96.6636 172.294 96.9099C172.294 96.9482 172.301 96.9861 172.315 97.0216C172.33 97.057 172.351 97.0893 172.378 97.1165C172.404 97.1437 172.436 97.1653 172.472 97.1801C172.507 97.1948 172.545 97.2024 172.583 97.2024C172.852 97.2024 173.46 96.96 173.46 96.96C174.689 96.497 176.015 96.3591 177.313 96.5597C177.917 96.629 178.198 96.6636 178.332 96.4597C178.371 96.3981 178.417 96.2711 178.294 96.0749C178.051 95.6785 177.101 95.0397 175.758 95.0166ZM184.455 96.5559C183.966 96.5559 183.551 96.7522 183.366 97.1254C183.077 97.7181 183.501 98.5224 184.313 98.9188C185.121 99.319 186.017 99.1612 186.314 98.5724C186.602 97.9759 186.179 97.1716 185.367 96.7752C185.084 96.6325 184.772 96.56 184.455 96.5559ZM139.68 96.6483C139.865 96.6483 140.057 96.6483 140.253 96.6598C143.063 96.8137 147.203 98.9688 148.15 105.088C148.985 110.514 147.658 116.028 142.574 116.898C142.101 116.975 141.62 117.01 141.135 116.998C136.44 116.871 131.364 112.642 130.86 107.627C130.302 102.086 133.134 97.822 138.148 96.8099C138.599 96.7175 139.118 96.6559 139.68 96.6483ZM139.411 100.216C138.8 100.21 138.195 100.332 137.634 100.573C137.072 100.814 136.568 101.17 136.151 101.616C134.689 103.225 134.462 105.419 134.743 106.196C134.847 106.477 135.012 106.558 135.127 106.573C135.374 106.604 135.743 106.423 135.974 105.803C135.997 105.737 136.019 105.67 136.04 105.603C136.179 105.105 136.383 104.626 136.644 104.179C136.834 103.887 137.081 103.636 137.369 103.44C137.657 103.243 137.981 103.105 138.322 103.034C138.664 102.963 139.016 102.96 139.358 103.025C139.701 103.09 140.027 103.222 140.319 103.414C141.342 104.083 141.739 105.338 141.3 106.531C141.077 107.15 140.708 108.336 140.788 109.305C140.954 111.272 142.162 112.065 143.251 112.145C144.306 112.184 145.045 111.595 145.233 111.16C145.345 110.902 145.252 110.748 145.191 110.679C145.025 110.475 144.756 110.537 144.498 110.598C144.297 110.653 144.09 110.681 143.882 110.683C143.661 110.689 143.442 110.64 143.245 110.541C143.047 110.442 142.878 110.295 142.751 110.113C142.451 109.652 142.47 108.959 142.801 108.174C142.843 108.066 142.897 107.951 142.955 107.82C143.486 106.635 144.371 104.645 143.378 102.752C142.628 101.328 141.404 100.435 139.938 100.25C139.762 100.227 139.584 100.214 139.407 100.212L139.411 100.216Z" fill="black"/>
</g>
<defs>
<clipPath id="clip0_10_304">
<rect width="92.3593" height="92.3593" fill="white" transform="translate(119.907 48.6099)"/>
</clipPath>
</defs>
</svg>
