<svg width="331" height="190" viewBox="0 0 331 190" fill="none" xmlns="http://www.w3.org/2000/svg">
<rect width="330.549" height="189.58" rx="24" fill="#FF5301"/>
<path d="M211.856 63.1935C209.923 63.1937 208.025 63.7109 206.36 64.6914C204.694 65.6719 203.321 67.0801 202.383 68.77L202.162 69.2244L193.722 85.9677L182.982 107.131L190.018 120.996L190.403 121.754C191.488 123.673 193.124 125.222 195.099 126.201C197.071 125.218 198.706 123.67 199.794 121.754L200.18 120.996L221.26 79.3998L221.77 78.3947C222.486 76.7494 222.783 74.9517 222.632 73.1633C222.482 71.3749 221.889 69.6521 220.907 68.1498C219.925 66.6476 218.585 65.4131 217.007 64.5575C215.43 63.702 213.664 63.2522 211.87 63.2486L211.856 63.1935ZM146.7 83.3378L139.678 69.5687L139.292 68.8113C138.217 66.8938 136.584 65.3478 134.611 64.3777C132.641 65.3463 131.01 66.8867 129.929 68.7976L129.53 69.5687L108.422 111.124L107.913 112.115C106.774 114.664 106.665 117.555 107.608 120.183C108.55 122.81 110.472 124.972 112.971 126.216C115.47 127.461 118.354 127.691 121.018 126.859C123.683 126.028 125.924 124.198 127.272 121.754L127.506 121.313L136.002 104.57L146.728 83.4204L146.7 83.3378Z" fill="white"/>
<path d="M211.82 63.1935C209.889 63.1947 207.994 63.7124 206.33 64.693C204.667 65.6736 203.296 67.0812 202.36 68.77L202.126 69.2244L193.631 85.9677L182.877 107.131L189.927 120.996L190.312 121.754C191.393 123.676 193.03 125.226 195.008 126.201C196.985 125.226 198.622 123.676 199.703 121.754L200.102 120.996L221.252 79.3998L221.747 78.3947C222.464 76.7494 222.761 74.9517 222.61 73.1633C222.46 71.3749 221.867 69.6521 220.885 68.1498C219.903 66.6476 218.563 65.4131 216.985 64.5575C215.408 63.702 213.642 63.2522 211.847 63.2486L211.82 63.1935Z" fill="white"/>
<path d="M117.797 127.33C119.72 127.335 121.611 126.828 123.274 125.86C124.937 124.892 126.311 123.498 127.256 121.822L127.49 121.368L135.999 104.624L146.739 83.4613L139.703 69.527L139.318 68.7697C138.229 66.8488 136.589 65.2993 134.609 64.3222C132.634 65.3015 130.998 66.8508 129.913 68.7697L129.528 69.527L108.351 111.124L107.841 112.129C107.124 113.774 106.828 115.572 106.978 117.36C107.129 119.148 107.722 120.871 108.704 122.373C109.686 123.876 111.026 125.11 112.603 125.966C114.181 126.821 115.947 127.271 117.741 127.275L117.797 127.33Z" fill="url(#paint0_linear_10_332)"/>
<path d="M146.699 83.3377L139.676 69.5685L139.291 68.8112C138.21 66.8892 136.573 65.3388 134.595 64.3638C135.253 64.0417 135.94 63.7835 136.647 63.5927C137.547 63.3646 138.472 63.249 139.401 63.2485H154.106C156.026 63.2538 157.911 63.7659 159.569 64.733C161.228 65.7001 162.602 67.0879 163.552 68.7562L163.937 69.5135L182.953 107.186L189.961 120.955L190.347 121.712C191.44 123.655 193.096 125.22 195.097 126.201C193.608 126.925 191.975 127.306 190.319 127.316H175.531C173.613 127.31 171.731 126.797 170.075 125.83C168.419 124.863 167.047 123.476 166.099 121.809L165.7 121.051L146.699 83.3377Z" fill="#FF8C44"/>
<defs>
<linearGradient id="paint0_linear_10_332" x1="2678.79" y1="382.385" x2="218.128" y2="5658.9" gradientUnits="userSpaceOnUse">
<stop stop-color="white"/>
</linearGradient>
</defs>
</svg>
