<svg xmlns="http://www.w3.org/2000/svg" width="163" height="38" viewBox="0 0 163 38" fill="none"><g clip-path="url(#clip0_9920_22781)"><path d="M32.9595 12.8184H36.4182V15.4039H32.9595V27.8856H30.2694V15.4039H27.875V12.8184H30.2694C30.2694 9.6682 31.3041 6.72607 35.4131 6.72607C35.8269 6.72607 36.0634 6.72607 36.4182 6.78551V9.0144C36.2408 9.0144 35.9156 8.98468 35.7087 8.98468C33.2847 8.98468 32.9891 10.5598 32.9595 12.8184Z" fill="white"></path><path d="M53.7734 20.367C53.7734 24.7059 50.433 28.2721 45.9101 28.2721C41.3873 28.2721 38.0469 24.7059 38.0469 20.367C38.0469 16.0281 41.3873 12.4619 45.9101 12.4619C50.433 12.4619 53.7734 16.0281 53.7734 20.367ZM51.0242 20.367C51.0242 17.2763 48.8662 15.0177 45.9101 15.0177C42.954 15.0177 40.8256 17.2763 40.8256 20.367C40.8256 23.4577 42.954 25.6866 45.9101 25.6866C48.8662 25.6866 51.0242 23.428 51.0242 20.367Z" fill="white"></path><path d="M64.4125 12.4619V15.5229C59.9783 14.988 59.4166 18.3759 59.4166 21.1397V27.8858H56.7266V12.8185H59.4166V15.4338C60.4217 13.4129 62.491 12.4619 64.4125 12.4619Z" fill="white"></path><path d="M80.6712 21.526H68.758C69.1719 23.9927 71.0047 25.6866 73.9312 25.6866C75.5571 25.6866 77.0352 25.0625 77.8629 23.9927L80.08 25.4192C78.7497 27.232 76.5622 28.2721 73.9312 28.2721C68.965 28.2721 65.8906 24.7059 65.8906 20.367C65.8906 16.0281 69.0832 12.4619 73.4878 12.4619C77.5673 12.4619 81.3807 15.9093 80.6712 21.526ZM77.9516 19.208C77.5968 16.6522 76.0301 15.0177 73.4878 15.0177C70.9456 15.0177 69.1719 16.7117 68.758 19.208H77.9516Z" fill="white"></path><path d="M94.2959 23.3686C94.2959 26.0432 92.404 28.2721 88.4133 28.2721C85.4572 28.2721 82.974 27.0834 82.3828 24.8248L85.0138 23.9332C85.2502 24.7059 86.0484 25.7758 88.4724 25.7758C90.4234 25.7758 91.5172 24.9734 91.5172 23.6361C91.5172 21.8827 89.0045 21.8827 86.9352 21.4072C84.1269 20.7831 82.9149 19.416 82.9149 17.1871C82.9149 14.4233 85.1911 12.4619 88.4428 12.4619C90.8669 12.4619 93.0248 13.7101 93.5569 15.939L91.0442 16.6225C90.7782 15.7904 89.8913 14.8988 88.2063 14.8988C86.7283 14.8988 85.6345 15.7309 85.6345 16.9791C85.6345 18.6731 87.7038 18.7919 89.4184 19.1486C93.0839 19.9212 94.2959 21.11 94.2959 23.3686Z" fill="white"></path><path d="M108.427 23.2794L110.733 24.5276C109.373 26.7565 107.009 28.2721 104.082 28.2721C99.5592 28.2721 96.2188 24.7059 96.2188 20.367C96.2188 16.0281 99.5592 12.4619 104.082 12.4619C107.009 12.4619 109.373 13.9776 110.733 16.1767L108.427 17.4546C107.541 15.9687 105.974 15.0177 104.082 15.0177C101.126 15.0177 98.9679 17.2763 98.9679 20.367C98.9679 23.4577 101.126 25.6866 104.082 25.6866C105.974 25.6866 107.541 24.7654 108.427 23.2794Z" fill="white"></path><path d="M120.936 12.4619V15.5229C116.502 14.988 115.94 18.3759 115.94 21.1397V27.8858H113.25V12.8185H115.94V15.4338C116.945 13.4129 119.014 12.4619 120.936 12.4619Z" fill="white"></path><path d="M123.711 8.59809C123.711 7.76598 124.391 7.05273 125.248 7.05273C126.105 7.05273 126.785 7.76598 126.785 8.59809C126.785 9.43021 126.105 10.1435 125.248 10.1435C124.391 10.1435 123.711 9.45993 123.711 8.59809ZM123.888 12.8181H126.608V27.8854H123.888V12.8181Z" fill="white"></path><path d="M146.061 20.3667C146.061 24.3192 143.253 28.2718 138.582 28.2718C135.981 28.2718 134.267 27.2019 133.143 25.7754V27.8854H130.453V7.08252H133.143V14.9282C134.267 13.5314 135.981 12.4616 138.582 12.4616C143.253 12.4616 146.061 16.4141 146.061 20.3667ZM143.283 20.3667C143.283 17.3354 141.42 15.0173 138.316 15.0173C135.035 15.0173 133.143 17.3948 133.143 20.3667C133.143 23.3385 135.035 25.6863 138.316 25.6863C141.42 25.6863 143.283 23.398 143.283 20.3667Z" fill="white"></path><path d="M162.913 21.526H151C151.414 23.9927 153.247 25.6866 156.173 25.6866C157.799 25.6866 159.277 25.0625 160.105 23.9927L162.322 25.4192C160.992 27.232 158.804 28.2721 156.173 28.2721C151.207 28.2721 148.133 24.7059 148.133 20.367C148.133 16.0281 151.325 12.4619 155.73 12.4619C159.809 12.4619 163.623 15.9093 162.913 21.526ZM160.194 19.208C159.839 16.6522 158.272 15.0177 155.73 15.0177C153.188 15.0177 151.414 16.7117 151 19.208H160.194Z" fill="white"></path><path d="M0 10.8571L19.599 0V8.90563L0 19.8321V10.8571Z" fill="#8B3DFF"></path><path d="M7.46911 37.9999V28.7773L19.599 22.2492V13.3931L0 24.3196V33.8592L7.46911 37.9999Z" fill="#8B3DFF"></path></g><defs><clipPath id="clip0_9920_22781"><rect width="163" height="38" fill="white"></rect></clipPath></defs></svg>